<?xml version="1.0" encoding="utf-8"?>
<svg version="1.1" xmlns:xlink="http://www.w3.org/1999/xlink" width="136px" height="50px" xmlns="http://www.w3.org/2000/svg">
  <g transform="matrix(1 0 0 1 -43 -175 )">
    <path d="M 44 178  A 2 2 0 0 1 46 176 L 176 176  A 2 2 0 0 1 178 178 L 178 222  A 2 2 0 0 1 176 224 L 46 224  A 2 2 0 0 1 44 222 L 44 178  Z " fill-rule="nonzero" fill="#ffffff" stroke="none" fill-opacity="0" />
    <path d="M 43.5 178  A 2.5 2.5 0 0 1 46 175.5 L 176 175.5  A 2.5 2.5 0 0 1 178.5 178 L 178.5 222  A 2.5 2.5 0 0 1 176 224.5 L 46 224.5  A 2.5 2.5 0 0 1 43.5 222 L 43.5 178  Z " stroke-width="1" stroke="#d1a37b" fill="none" stroke-opacity="0.427450980392157" />
  </g>
</svg>