<?xml version="1.0" encoding="utf-8"?>
<svg version="1.1" xmlns:xlink="http://www.w3.org/1999/xlink" width="103px" height="50px" xmlns="http://www.w3.org/2000/svg">
  <g transform="matrix(1 0 0 1 -31 -133 )">
    <path d="M 32 136  A 2 2 0 0 1 34 134 L 131 134  A 2 2 0 0 1 133 136 L 133 180  A 2 2 0 0 1 131 182 L 34 182  A 2 2 0 0 1 32 180 L 32 136  Z " fill-rule="nonzero" fill="#ffffff" stroke="none" fill-opacity="0" />
    <path d="M 31.5 136  A 2.5 2.5 0 0 1 34 133.5 L 131 133.5  A 2.5 2.5 0 0 1 133.5 136 L 133.5 180  A 2.5 2.5 0 0 1 131 182.5 L 34 182.5  A 2.5 2.5 0 0 1 31.5 180 L 31.5 136  Z " stroke-width="1" stroke="#d1a37b" fill="none" stroke-opacity="0.427450980392157" />
  </g>
</svg>