<?xml version="1.0" encoding="utf-8"?>
<svg version="1.1" xmlns:xlink="http://www.w3.org/1999/xlink" width="94px" height="33px" xmlns="http://www.w3.org/2000/svg">
  <g transform="matrix(1 0 0 1 -83 -134 )">
    <path d="M 84 137  A 2 2 0 0 1 86 135 L 174 135  A 2 2 0 0 1 176 137 L 176 164  A 2 2 0 0 1 174 166 L 86 166  A 2 2 0 0 1 84 164 L 84 137  Z " fill-rule="nonzero" fill="#ffffff" stroke="none" fill-opacity="0" />
    <path d="M 83.5 137  A 2.5 2.5 0 0 1 86 134.5 L 174 134.5  A 2.5 2.5 0 0 1 176.5 137 L 176.5 164  A 2.5 2.5 0 0 1 174 166.5 L 86 166.5  A 2.5 2.5 0 0 1 83.5 164 L 83.5 137  Z " stroke-width="1" stroke="#d1a37b" fill="none" stroke-opacity="0.427450980392157" />
  </g>
</svg>